<svg width="20" height="20" viewBox="0 0 27 27" fill="none" xmlns="http://www.w3.org/2000/svg">
<path d="M13.3575 26.7692C13.0371 26.7692 12.7789 26.663 12.5827 26.4507C12.3866 26.2384 12.2885 25.9734 12.2885 25.6557V14.4807H1.07885C0.761216 14.4807 0.501999 14.3711 0.301199 14.1518C0.100399 13.9326 0 13.6736 0 13.3749C0 13.0761 0.100399 12.8203 0.301199 12.6076C0.501999 12.3949 0.761216 12.2885 1.07885 12.2885H12.2885V1.07885C12.2885 0.78775 12.3898 0.535167 12.5925 0.3211C12.7952 0.107033 13.0567 0 13.3771 0C13.6975 0 13.9615 0.107033 14.1692 0.3211C14.3769 0.535167 14.4807 0.78775 14.4807 1.07885V12.2885H25.6557C25.9734 12.2885 26.2384 12.3965 26.4507 12.6124C26.663 12.8283 26.7692 13.0832 26.7692 13.3771C26.7692 13.6975 26.663 13.9615 26.4507 14.1692C26.2384 14.3769 25.9734 14.4807 25.6557 14.4807H14.4807V25.6557C14.4807 25.9734 14.3736 26.2384 14.1594 26.4507C13.9452 26.663 13.6779 26.7692 13.3575 26.7692Z" fill="#ffffff"/>
</svg>
