<svg width="34" height="34" viewBox="0 0 34 34" fill="none" xmlns="http://www.w3.org/2000/svg">
<path d="M16.9442 33.2627C12.2301 33.2627 8.2275 31.6172 4.9365 28.3262C1.6455 25.0352 0 21.0327 0 16.3186C0 12.4943 1.08492 9.12895 3.25475 6.22255C5.42458 3.31615 8.38577 1.29754 12.1383 0.166745C13.3857 -0.155022 14.2306 -0.0111053 14.6729 0.598495C15.1152 1.20809 15.13 2.09558 14.7172 3.26094C14.5146 3.92761 14.3649 4.5962 14.2681 5.2667C14.1713 5.9372 14.1229 6.62116 14.1229 7.3186C14.1229 10.6109 15.27 13.4042 17.5643 15.6984C19.8585 17.9927 22.6518 19.1398 25.9442 19.1398C26.757 19.1398 27.5118 19.0805 28.2086 18.9619C28.9054 18.8433 29.5659 18.7251 30.1903 18.6071C31.4492 18.2456 32.3265 18.3094 32.822 18.7985C33.3175 19.2876 33.4114 20.1065 33.1037 21.2552C32.0485 24.7244 30.0844 27.593 27.2114 29.8609C24.3383 32.1288 20.9159 33.2627 16.9442 33.2627Z" fill="#d9d9d9"/>
</svg>
