<svg width="43" height="43" viewBox="0 0 43 43" fill="none" xmlns="http://www.w3.org/2000/svg">
<path d="M21.4442 30.423C18.957 30.423 16.8446 29.5541 15.1068 27.8163C13.369 26.0785 12.5001 23.966 12.5001 21.4788C12.5001 18.9916 13.369 16.8734 15.1068 15.1241C16.8446 13.3747 18.957 12.5 21.4442 12.5C23.9314 12.5 26.0496 13.3747 27.7989 15.1241C29.5483 16.8734 30.423 18.9916 30.423 21.4788C30.423 23.966 29.5483 26.0785 27.7989 27.8163C26.0496 29.5541 23.9314 30.423 21.4442 30.423ZM1.0788 22.5576C0.7612 22.5576 0.502 22.4563 0.3012 22.2536C0.1004 22.0509 0 21.7894 0 21.469C0 21.1486 0.1004 20.8846 0.3012 20.6769C0.502 20.4692 0.7612 20.3654 1.0788 20.3654H6.3096C6.62723 20.3654 6.89222 20.4725 7.10455 20.6867C7.31688 20.9009 7.42305 21.1682 7.42305 21.4886C7.42305 21.809 7.31688 22.0672 7.10455 22.2634C6.89222 22.4595 6.62723 22.5576 6.3096 22.5576H1.0788ZM36.5788 22.5576C36.2612 22.5576 36.002 22.4563 35.8012 22.2536C35.6004 22.0509 35.5 21.7894 35.5 21.469C35.5 21.1486 35.6004 20.8846 35.8012 20.6769C36.002 20.4692 36.2612 20.3654 36.5788 20.3654H41.8096C42.1272 20.3654 42.3922 20.4725 42.6045 20.6867C42.8168 20.9009 42.923 21.1682 42.923 21.4886C42.923 21.809 42.8168 22.0672 42.6045 22.2634C42.3922 22.4595 42.1272 22.5576 41.8096 22.5576H36.5788ZM21.4344 7.42305C21.114 7.42305 20.8558 7.32265 20.6596 7.12185C20.4635 6.92105 20.3654 6.66183 20.3654 6.3442V1.11345C20.3654 0.795817 20.4667 0.530834 20.6694 0.318501C20.8721 0.106167 21.1336 0 21.454 0C21.7744 0 22.0384 0.106167 22.2461 0.318501C22.4538 0.530834 22.5577 0.795817 22.5577 1.11345V6.3442C22.5577 6.66183 22.4505 6.92105 22.2363 7.12185C22.0221 7.32265 21.7548 7.42305 21.4344 7.42305ZM21.4344 42.9228C21.114 42.9228 20.8558 42.8225 20.6596 42.6218C20.4635 42.421 20.3654 42.1618 20.3654 41.8442V36.6134C20.3654 36.2958 20.4667 36.0308 20.6694 35.8185C20.8721 35.6061 21.1336 35.5 21.454 35.5C21.7744 35.5 22.0384 35.6061 22.2461 35.8185C22.4538 36.0308 22.5577 36.2958 22.5577 36.6134V41.8442C22.5577 42.1618 22.4505 42.421 22.2363 42.6218C22.0221 42.8225 21.7548 42.9228 21.4344 42.9228ZM10.0039 11.5288L6.98075 8.57495C6.75128 8.36855 6.64165 8.10962 6.65185 7.79815C6.66208 7.48668 6.76875 7.22082 6.97185 7.00055C7.18818 6.78478 7.44887 6.67433 7.7539 6.6692C8.05897 6.66407 8.32112 6.76792 8.54035 6.98075L11.5135 9.9846C11.7224 10.2228 11.8269 10.4882 11.8269 10.7806C11.8269 11.073 11.7256 11.3178 11.5231 11.5151C11.3141 11.7332 11.0619 11.8439 10.7664 11.8471C10.4709 11.8503 10.2167 11.7442 10.0039 11.5288ZM34.3481 35.9423L31.375 32.9384C31.1596 32.7239 31.0535 32.4672 31.0567 32.1684C31.0599 31.8696 31.1743 31.6083 31.4 31.3846C31.5833 31.1718 31.8234 31.0711 32.1202 31.0827C32.4169 31.0942 32.6833 31.2096 32.9192 31.4288L35.9423 34.3827C36.1487 34.5891 36.2468 34.848 36.2366 35.1595C36.2263 35.4709 36.1197 35.7368 35.9166 35.9571C35.7002 36.1728 35.4395 36.2833 35.1345 36.2884C34.8294 36.2935 34.5673 36.1782 34.3481 35.9423ZM31.3846 11.5577C31.1487 11.3449 31.0365 11.0917 31.0481 10.7981C31.0596 10.5045 31.175 10.2398 31.3942 10.0039L34.3481 6.98075C34.5545 6.77435 34.8134 6.67625 35.1249 6.68645C35.4363 6.69668 35.7022 6.80335 35.9225 7.00645C36.1382 7.22278 36.2487 7.48347 36.2538 7.7885C36.2589 8.09357 36.1551 8.35572 35.9423 8.57495L32.9384 11.5481C32.723 11.757 32.4654 11.8615 32.1655 11.8615C31.8656 11.8615 31.6053 11.7602 31.3846 11.5577ZM6.96595 35.9612C6.75018 35.7382 6.63973 35.4741 6.6346 35.1691C6.62947 34.864 6.74485 34.6019 6.98075 34.3827L9.9846 31.4096C10.1959 31.1904 10.4487 31.0782 10.7431 31.0731C11.0374 31.0679 11.2988 31.1801 11.5273 31.4096C11.7411 31.6096 11.8407 31.858 11.8259 32.1548C11.8112 32.4515 11.7006 32.7063 11.4942 32.9192L8.54035 35.9423C8.32112 36.1782 8.05897 36.2942 7.7539 36.2904C7.44887 36.2866 7.18622 36.1768 6.96595 35.9612Z" fill="#222222"/>
</svg>
