<?xml version="1.0" encoding="UTF-8"?>
<!DOCTYPE svg PUBLIC "-//W3C//DTD SVG 1.1//EN" "http://www.w3.org/Graphics/SVG/1.1/DTD/svg11.dtd">
<!-- Creator: CorelDRAW -->
<svg xmlns="http://www.w3.org/2000/svg" xml:space="preserve" width="5.78326in" height="5.15916in" version="1.1" style="shape-rendering:geometricPrecision; text-rendering:geometricPrecision; image-rendering:optimizeQuality; fill-rule:evenodd; clip-rule:evenodd"
viewBox="0 0 5782.84 5158.79"
 xmlns:xlink="http://www.w3.org/1999/xlink"
 xmlns:xodm="http://www.corel.com/coreldraw/odm/2003">
 <defs>
  <style type="text/css">
   <![CDATA[
    .fil0 {fill:#292929}
    .fil1 {fill:#596AFF}
    .fil2 {fill:white}
    .fil4 {fill:#596AFF;fill-rule:nonzero}
    .fil3 {fill:#FF614B;fill-rule:nonzero}
   ]]>
  </style>
 </defs>
 <g id="Layer_x0020_1">
  <metadata id="CorelCorpID_0Corel-Layer"/>
  <g id="_2216275546144">
   <path class="fil0" d="M3364.89 208.17c103.43,-127 261.02,-208.17 437.47,-208.17 204.43,0 383.55,108.94 482.44,271.91 40.73,1.78 80.91,5.71 120.41,11.69 776.91,99.13 1377.63,762.88 1377.63,1566.69l0 1729.04c0,872.19 -707.28,1579.47 -1579.47,1579.47l-2635 0c-384.49,0 -712.31,-208.06 -889.84,-509.92 -471.81,-172.26 -772.83,-678.39 -651.64,-1202.17l532.01 -2299.38c111.67,-482.64 522.78,-832.86 1009.51,-872.71 98.55,-164.46 278.53,-274.61 484.08,-274.61 176.45,0 334.04,81.16 437.47,208.16 103.43,-127 261.02,-208.16 437.46,-208.16 176.45,0 334.04,81.16 437.47,208.17z"/>
   <g>
    <path class="fil1" d="M1777.26 909.24c-204.55,175.32 -352.44,417.34 -408.59,697.32l-478.27 2384.82c-85.83,427.97 241.47,827.43 677.97,827.43l2635 0c684.55,0 1239.49,-554.94 1239.49,-1239.49l0 -1729.04c0,-684.56 -554.94,-1239.5 -1239.49,-1239.5l-72.91 0 0 119.79c0,181.2 -146.89,328.1 -328.1,328.1 -181.2,0 -328.1,-146.89 -328.1,-328.1l0 -119.79 -218.74 0 0 119.79c0,181.2 -146.89,328.1 -328.1,328.1 -181.2,0 -328.09,-146.89 -328.09,-328.1l0 -119.79 -15.35 0c-69.09,0 -137.05,5.7 -203.38,16.7l0 103.09c0,181.2 -146.89,328.1 -328.1,328.1 -115.3,0 -216.72,-59.48 -275.23,-149.43z"/>
    <path class="fil2" d="M1724.39 610.79l-63.03 0c-368.45,0 -688.19,254.21 -771.24,613.17l-532.01 2299.38c-100.3,433.52 228.91,847.59 673.88,847.59l3202.63 0c437.2,0 791.61,-354.41 791.61,-791.61l0 -2176.92c0,-437.19 -354.41,-791.61 -791.61,-791.61l-104.16 0 0 119.79c0,181.2 -146.89,328.1 -328.1,328.1 -181.2,0 -328.1,-146.89 -328.1,-328.1l0 -119.79 -218.74 0 0 119.79c0,181.2 -146.89,328.1 -328.1,328.1 -181.2,0 -328.09,-146.89 -328.09,-328.1l0 -119.79 -218.74 0 0 119.79c0,181.2 -146.89,328.1 -328.1,328.1 -181.2,0 -328.1,-146.89 -328.1,-328.1l0 -119.79z"/>
    <path class="fil3" d="M1639.34 1214.47l2201.52 0c166.78,0 302.04,135.26 302.04,302.04l0 0c0,166.78 -135.26,302.04 -302.04,302.04l-2201.52 0c-166.78,-0 -302.04,-135.26 -302.04,-302.05l-0 0c0,-166.78 135.26,-302.04 302.05,-302.04z"/>
    <path class="fil3" d="M1426.41 2047.71l2727.57 0c166.78,0 302.04,135.26 302.04,302.04l0 0c0,166.78 -135.26,302.04 -302.04,302.04l-2727.57 0c-166.78,-0 -302.04,-135.26 -302.04,-302.04l-0 0c0,-166.78 135.26,-302.04 302.05,-302.04z"/>
    <path class="fil3" d="M1195.24 2880.93l1005.29 0c166.79,-0 302.05,135.25 302.05,302.04l-0 0c0,166.78 -135.25,302.04 -302.04,302.04l-1005.29 0c-166.78,-0 -302.04,-135.26 -302.04,-302.05l-0 0c0,-166.79 135.26,-302.05 302.05,-302.05z"/>
    <path class="fil4" d="M2927.42 339.98l0 0c123.66,0 223.94,100.28 223.94,223.94l0 166.66c-0,123.66 -100.29,223.94 -223.94,223.94l0 0c-123.65,0 -223.93,-100.28 -223.93,-223.94l-0 -166.66c0,-123.66 100.29,-223.94 223.94,-223.94z"/>
    <path class="fil4" d="M2052.49 339.98l0 0c123.66,0 223.94,100.28 223.94,223.94l0 166.66c0,123.66 -100.28,223.94 -223.94,223.94l-0 0c-123.65,0 -223.94,-100.28 -223.94,-223.94l-0 -166.66c0,-123.66 100.29,-223.94 223.94,-223.94z"/>
    <path class="fil4" d="M3802.36 339.98l0 0c123.66,0 223.94,100.28 223.94,223.94l0 166.66c-0,123.66 -100.29,223.94 -223.94,223.94l0 0c-123.66,0 -223.94,-100.28 -223.94,-223.94l0 -166.66c0,-123.66 100.28,-223.94 223.94,-223.94z"/>
   </g>
  </g>
 </g>
</svg>
