<svg width="490" height="430" viewBox="0 0 490 430" fill="none" xmlns="http://www.w3.org/2000/svg">
<path fill-rule="evenodd" clip-rule="evenodd" d="M138.076 54.6532C118.438 71.485 104.239 94.7208 98.8487 121.601L52.9314 350.561C44.6912 391.649 76.1144 430 118.021 430H371C436.722 430 490 376.722 490 311V145C490 79.2781 436.722 26 371 26H364V37.5C364 54.897 349.897 69 332.5 69C315.103 69 301 54.897 301 37.5V26H280V37.5C280 54.897 265.897 69 248.5 69C231.103 69 217 54.897 217 37.5V26H215.526C208.893 26 202.369 26.5473 196 27.6029V37.5C196 54.897 181.897 69 164.5 69C153.43 69 143.693 63.2894 138.076 54.6532Z" fill="#596AFF"/>
<path fill-rule="evenodd" clip-rule="evenodd" d="M133 26H126.949C91.575 26 60.8784 50.4052 52.9046 84.8683L1.82791 305.625C-7.802 347.246 23.8046 387 66.5251 387H374C415.974 387 450 352.974 450 311V102C450 60.0264 415.974 26 374 26H364V37.5C364 54.897 349.897 69 332.5 69C315.103 69 301 54.897 301 37.5V26H280V37.5C280 54.897 265.897 69 248.5 69C231.103 69 217 54.897 217 37.5V26H196V37.5C196 54.897 181.897 69 164.5 69C147.103 69 133 54.897 133 37.5V26Z" fill="white"/>
<rect x="95.8363" y="83.9578" width="269.358" height="57.9963" rx="28.9982" fill="#FF614B"/>
<rect x="75.394" y="163.954" width="319.862" height="57.9963" rx="28.9982" fill="#FF614B"/>
<rect x="53.2003" y="243.95" width="154.511" height="57.9963" rx="28.9982" fill="#FF614B"/>
<rect x="227" width="43" height="59" rx="21.5" fill="#596AFF"/>
<rect x="143" width="43" height="59" rx="21.5" fill="#596AFF"/>
<rect x="311" width="43" height="59" rx="21.5" fill="#596AFF"/>
</svg>
