<svg width="18" height="18" viewBox="0 0 34 34" fill="#ffffff" xmlns="http://www.w3.org/2000/svg">
<path d="M2.8031 33.7229C2.0498 33.7229 1.3943 33.444 0.836601 32.8863C0.278867 32.3286 0 31.6731 0 30.9198V2.8031C0 2.0498 0.278867 1.3943 0.836601 0.836601C1.3943 0.278867 2.04988 0 2.80335 0H25.2922C25.6705 0 26.0312 0.0692167 26.3741 0.20765C26.7169 0.346117 27.0315 0.558501 27.3177 0.844801L32.8781 6.40515C33.1644 6.69142 33.3768 7.00598 33.5153 7.34885C33.6537 7.69175 33.7229 8.05237 33.7229 8.4307V30.9196C33.7229 31.673 33.444 32.3286 32.8863 32.8863C32.3286 33.444 31.6731 33.7229 30.9198 33.7229H2.8031ZM16.8452 27.0998C18.0404 27.0998 19.0618 26.6815 19.9094 25.8448C20.7569 25.0081 21.1806 23.9922 21.1806 22.797C21.1806 21.6017 20.7623 20.5803 19.9256 19.7328C19.0889 18.8852 18.073 18.4615 16.8777 18.4615C15.6825 18.4615 14.6611 18.8798 13.8136 19.7164C12.966 20.5531 12.5423 21.5691 12.5423 22.7643C12.5423 23.9596 12.9606 24.981 13.7973 25.8285C14.634 26.676 15.6499 27.0998 16.8452 27.0998ZM6.84995 11.7423H20.2572C20.6755 11.7423 21.0135 11.6095 21.2711 11.344C21.5287 11.0785 21.6576 10.7459 21.6576 10.3461V6.84995C21.6576 6.43765 21.5279 6.10188 21.2687 5.84265C21.0095 5.58342 20.6737 5.4538 20.2614 5.4538H6.85425C6.43588 5.4538 6.09788 5.58342 5.84025 5.84265C5.58262 6.10188 5.4538 6.43765 5.4538 6.84995V10.3461C5.4538 10.7459 5.58342 11.0785 5.84265 11.344C6.10188 11.6095 6.43765 11.7423 6.84995 11.7423Z"/>
</svg>
